# xmcd
#
# Track frame offsets: 
#        150
#        7355
#        22664
#        39086
#        65034
#        80666
#        95505
#        103472
#        112644
#        131281
#
# Disc length: 1943 seconds
#
# Revision: 0
# Processed by: cddbd v1.5.2PL0 Copyright (c) Steve Scherf et al.
# Submitted via: ExactAudioCopyFreeDBPlugin 1.0
#
DISCID=7707950a
DTITLE=Samy Deluxe - Baus Kingskis Late Night Sessions (JUICE Exclusiv
DTITLE=e EP)
DYEAR=2011
DGENRE=Hip-Hop
TTITLE0=Showbeginn
TTITLE1=Terrorist feat. MoTrip
TTITLE2=Feind Bild
TTITLE3=Scheinfranzose
TTITLE4=Drama feat. Ali A$
TTITLE5=Weltraum feat. Megaloh
TTITLE6=Erdbeere
TTITLE7=Niemand (Was wir nicht tun) – Rap Takeover Version
TTITLE8=Scheisse labern (Freestyle)
TTITLE9=Poww!
EXTD=
EXTT0=
EXTT1=
EXTT2=
EXTT3=
EXTT4=
EXTT5=
EXTT6=
EXTT7=
EXTT8=
EXTT9=
PLAYORDER=
